<svg viewBox="0 0 479.31 503.69" xmlns="http://www.w3.org/2000/svg"><path d="M329.34 0H164.48l-8.29 81.05L0 73.55l94.08 315.23 126.57-85 12.44 66.44h156L479.34 46.7 335.66 60.32zm-31.4 34.16l18.07 171.48 25.08-111.56 91.52-8.49-70.09 250.47H259.25l-20.73-164.67-3.75 85.39-120.25 79.28L46.8 110.18l114.62 5.23 17 90.23 17.45-171.48zM100.9 477.83l21.02-65.46h-10.86L95.07 464.6 77.8 412.37h-8.79L51.63 464.6l-16.09-52.23H24.88l21.02 65.46h10.27l17.18-52.62 17.18 52.62zm82.83-38.01h-42.95c.49-9.38 7.4-20.63 21.42-20.63 14.91 0 21.43 11.45 21.53 20.63zM163.59 479c10.56 0 19.35-3.45 26.36-9.87l-5.13-6.91a28 28 0 01-20.34 8.69c-14.12 0-22.61-10.66-23.4-23.4h53.26v-2.66c0-19.15-12.14-33.87-32-33.87-18.66 0-32 14.61-32 33.08.07 21.23 13.7 34.94 33.25 34.94zm74.83-8.88c-13 0-20.83-10.46-20.83-25s7.7-25.08 20.83-25.08c7.9 0 15.6 4.94 19.15 10.46v28.93c-3.55 5.76-11.35 10.69-19.15 10.69zm-1.68 33.57c15.7 0 31.39-6.52 31.39-26.16v-65.16h-10.56v10c-5.24-7.11-13-11.45-21.72-11.45-17 0-28.93 13.13-28.93 34.26 0 21.32 12.14 34.15 28.93 34.15 9.08 0 17-5 21.72-11.75v10c0 13.13-10.17 18.16-20.83 18.16-9.18 0-15.6-2.27-20.93-8.29l-5.24 6.91c7.91 7.26 15.41 9.33 26.17 9.33zm80.86-33.57c-14.22 0-22.11-11.85-22.11-25.07s7.9-25 22.11-25 22.12 11.85 22.12 25-7.91 25.07-22.12 25.07zm0 9.18c20.34 0 32.58-15.5 32.58-34.25S337.93 411 317.6 411s-32.58 15.3-32.58 34.07 12.24 34.24 32.58 34.24zm115.7-1.47l21.03-65.46h-10.86l-15.99 52.23-17.28-52.23h-8.79l-17.37 52.23-16.09-52.23h-10.67l21.03 65.46h10.27l17.18-52.62 17.17 52.62z" fill="#2effec"/></svg>