<svg viewBox="0 0 245.1 137.36" xmlns="http://www.w3.org/2000/svg"><path d="M87.43 25.72l88.69-10.87-11.49 21.76 15.77 29.28-37.76 25.03-56.2-20.22z" fill="#383838"/><path d="M68.95 82.74l26.84 31.36 60.8 18.89-1.03-25.44 17.57-26.42L111.9 68z" fill="#333"/><path d="M63.7 57.4l-.2 25 .2 30.86 93.97-69.32-46.98.97L95.36 5z" fill="#2a2a2a"/><g fill="#fff" opacity=".79"><path d="M123.49 58.16l-14.82 23.86 3.65 2.48 17.31-22.4zm.38-.7l6.31 3.94.82-.83-6.63-4.27zm-13.63 29.96l1.67-2.2-3.63-2.45-1.39 2.32s-1.2 2 .25 2.9c1.85 1.16 3.1-.57 3.1-.57zm22.12-44.33c-4.75.06-8.55 3.95-8.49 8.7.02 1.43.38 2.77 1.01 3.95l6.93 4.52c.25.02.5.03.76.03 4.75-.06 8.55-3.95 8.49-8.7-.05-4.75-3.95-8.55-8.7-8.5z"/><path d="M109.58 99.44c-.59 0-1.25-.11-1.98-.35-1.58-.53-2.57-1.46-2.96-2.76-1.15-3.93 3.61-9.89 3.82-10.15l.27.22c-.05.06-4.85 6.07-3.75 9.83.35 1.19 1.27 2.04 2.73 2.53 3.25 1.08 4.78-.68 6.12-2.23.84-.98 1.64-1.9 2.75-1.9h.01c1.05.01 2.25.86 3.78 2.67l-.27.22c-1.43-1.71-2.58-2.54-3.51-2.54h-.01c-.95 0-1.66.82-2.48 1.78-1.07 1.22-2.34 2.68-4.52 2.68z"/></g></svg>