<svg viewBox="0 0 514.3 516.7" xmlns="http://www.w3.org/2000/svg"><g fill="#fff"><path d="M382.4 91.5c2.2 1.7 4.4 2.1 6.5 1.3.9-.2 1.7-.7 2.5-1.5s2-2.3 3.8-4.7c1.7-2.3 2.9-4 3.6-5.1.6-1.1.9-2.2.8-3.2.1-2.4-.9-4.3-2.9-5.7L392 69l-14.3 19zM151.9 62.3c1.4 2.9 2.5 4.9 3.2 5.8s1.5 1.6 2.4 2c.8.4 1.6.6 2.6.6 1 .1 2-.1 3-.6 1.1-.5 1.9-1.2 2.4-2 .6-.7.9-1.5 1.1-2.3.3-.9.3-1.9 0-3.1-.3-1.1-1.1-3.2-2.6-6.1-1.4-2.9-2.5-4.9-3.2-5.9-.7-.9-1.5-1.5-2.4-1.9-.7-.4-1.6-.6-2.5-.7-1 0-2 .2-3.1.7-1 .5-1.8 1.2-2.4 1.9-.6.8-.9 1.6-1.1 2.4-.3.9-.3 1.9 0 3 .4 1.2 1.2 3.3 2.6 6.2zm124-27c.9-1 1.5-2.2 1.5-3.6.1-1.1 0-2.1-.4-2.8-.3-.7-.8-1.3-1.5-1.7-1-.7-2.1-1.1-3.5-1.2l-7.1-.5-.7 10.7 7.3.5c2 .2 3.4-.3 4.4-1.4zm31.8 4.3c1.1-.8 1.8-1.9 2.1-3.3.3-1.7.1-3-.8-4-.7-.8-1.8-1.4-3.3-1.7L298 29l-2.1 9.8 7.3 1.5c1.9.4 3.3.2 4.5-.7zm170.6 179.9c1.1.7 2.4.9 3.8.6 1.7-.4 2.8-1.2 3.4-2.3.5-1 .6-2.2.3-3.7l-1.5-7.6-9.9 2 1.5 7.3c.3 1.8 1.1 3 2.4 3.7zm-20.7-61.9c1.3.3 2.6.2 3.9-.5 1.5-.8 2.4-1.9 2.5-3.2.2-1.1-.1-2.3-.8-3.7l-3.7-6.8-8.9 4.8 3.5 6.6c1 1.5 2.1 2.4 3.5 2.8zm-1.3 22.1c-1 .6-1.7 1.3-2.2 2.1-.5.7-.8 1.6-.9 2.5-.2 1-.1 2 .3 3.1s1 2 1.7 2.6 1.4 1.1 2.2 1.3c.9.4 1.9.5 3.1.3s3.3-.8 6.3-1.9c3.1-1.1 5.1-2 6.2-2.6 1-.6 1.7-1.3 2.1-2.2.5-.7.8-1.5.9-2.4.1-1 0-2-.4-3.1s-1-1.9-1.7-2.6c-.7-.6-1.5-1.1-2.3-1.4-.9-.4-1.9-.4-3-.3-1.2.2-3.3.8-6.4 1.9-2.8 1.2-4.9 2-5.9 2.7zm-26.1-43.2c.9 0 1.8-.2 2.8-.8.9-.5 2.6-1.7 5-3.5 2.3-1.7 3.9-3 4.8-3.9s1.4-1.8 1.7-2.8c.7-2.2.3-4.4-1.2-6.3l-3.5-4.7-18.9 14.2 3.5 4.7c1.6 2.2 3.5 3.3 5.8 3.1zM39.8 177.1c-1.6-.5-3-.5-4.1.3-.9.6-1.6 1.6-2.2 3.1l-2.6 7.3 9.5 3.3 2.5-7c.6-1.8.5-3.2-.2-4.5-.5-1.2-1.5-2-2.9-2.5zm-8.7 31.4c-1.1-.2-2-.2-2.9 0-.7.2-1.4.6-1.9 1.2-.8.9-1.4 2-1.6 3.3l-1.4 7 10.5 2.1 1.4-7.2c.3-1.8 0-3.3-.9-4.4-.8-1.1-1.9-1.7-3.2-2zM461 360.3c-.9-.8-2.8-1.9-5.7-3.5-2.9-1.5-4.9-2.5-6-2.8-1.1-.4-2.1-.4-3.1-.2-.8.1-1.7.5-2.4 1-.8.5-1.5 1.3-2.1 2.3s-.8 2.1-.8 3 .2 1.8.5 2.5c.3.9.9 1.7 1.8 2.5.9.7 2.8 1.9 5.7 3.4s4.9 2.5 6 2.8 2.1.4 3 .1c.8-.1 1.6-.4 2.4-.9.8-.6 1.5-1.3 2.1-2.4.5-1 .8-2 .8-3s-.2-1.8-.5-2.6c-.2-.7-.8-1.5-1.7-2.2zM232.5 483c-1 1-1.5 2.2-1.6 3.5-.1 1.1 0 2.1.3 2.8s.8 1.3 1.4 1.7c1 .7 2.1 1.1 3.5 1.2l7.1.5.8-10.7-7.3-.5c-1.8-.1-3.2.4-4.2 1.5zm124.2-26.2c-1.4-2.9-2.4-4.9-3.1-5.8-.7-1-1.5-1.6-2.3-2s-1.6-.6-2.6-.6c-1-.1-2 .1-3 .6-1.1.5-1.9 1.2-2.4 2-.6.7-.9 1.5-1.1 2.3-.3.9-.3 1.9 0 3.1.3 1.1 1.1 3.2 2.5 6.1s2.4 4.9 3.1 5.9c.7.9 1.5 1.6 2.4 1.9.7.4 1.6.6 2.5.7 1 0 2-.2 3.1-.7 1-.5 1.8-1.2 2.4-1.9.6-.8.9-1.6 1.1-2.4.3-.9.3-1.9 0-3-.4-1.2-1.2-3.3-2.6-6.2zm112.8-114.1c1.6.6 3 .5 4.1-.3.9-.6 1.7-1.6 2.2-3.1l2.6-7.3-9.5-3.4-2.5 7c-.6 1.7-.6 3.2.1 4.5s1.7 2.1 3 2.6zm9-31.3c1.1.2 2 .2 2.9 0 .7-.2 1.4-.6 1.9-1.2.8-.9 1.4-2 1.6-3.3l1.4-7-10.5-2.1-1.5 7.2c-.3 1.8 0 3.3.9 4.4.9 1 2 1.7 3.3 2zM53.1 337.5c1-.6 1.8-1.3 2.2-2.1.5-.7.8-1.5.9-2.5.2-1 .1-2-.3-3.1s-1-2-1.7-2.6-1.4-1.1-2.2-1.3c-.9-.4-1.9-.5-3.1-.3s-3.3.8-6.3 1.9c-3.1 1.1-5.1 1.9-6.2 2.5-1 .6-1.7 1.3-2.2 2.2-.5.7-.8 1.5-1 2.4-.1 1 0 2 .4 3.1s1 1.9 1.7 2.6c.7.6 1.5 1.1 2.3 1.4.9.4 1.9.5 3 .3 1.2-.2 3.3-.8 6.4-1.9 3-1.2 5.1-2 6.1-2.6zm73.3 88.6c-2.2-1.7-4.4-2.1-6.5-1.4-.9.2-1.7.7-2.5 1.5s-2 2.3-3.8 4.7c-1.8 2.3-3 4-3.6 5-.6 1.1-.9 2.2-.8 3.2-.1 2.4.9 4.3 2.9 5.7l4.7 3.6 14.4-18.8zm-74.8-66.6c-1.3-.3-2.6-.2-3.9.5-1.5.8-2.4 1.9-2.6 3.2-.2 1.1 0 2.3.8 3.7l3.6 6.8 8.9-4.7-3.5-6.6c-.8-1.6-1.9-2.5-3.3-2.9zm149.2 119c-1.1.8-1.8 1.9-2.1 3.3-.3 1.7-.1 3 .8 4 .7.8 1.8 1.4 3.3 1.8l7.6 1.6 2.1-9.8-7.3-1.6c-1.8-.4-3.3-.2-4.4.7z"/><path d="M257.6 447.5c-97.8 0-178.2-74.2-188.2-169.3H.1c10.2 133.4 121.6 238.4 257.6 238.4s247.4-105.1 257.6-238.4h-69.4c-10 95.2-90.5 169.3-188.3 169.3zM19.5 303.7c-.5-2.7-.2-5 .9-6.9 1.2-2.3 3.3-3.8 6.3-4.5 4.4-.8 7.8.7 10.2 4.4l13-10.2 1.1 5.7-12.6 9.3 1.2 6.2 13.9-2.7.9 4.8-32.5 6.4zm18.3 43.2c-1.7-.2-3.4-1-5.1-2.2s-3-3-3.9-5.4c-.8-2.4-1-4.7-.4-6.7s1.4-3.6 2.6-4.8c.6-.8 1.4-1.5 2.6-2.1s3.6-1.6 7.2-2.8c3.6-1.3 6-2 7.3-2.3 1.3-.2 2.5-.2 3.4 0 1.7.2 3.4.9 5 2.1 1.7 1.2 3 3 3.9 5.5.8 2.4.9 4.6.3 6.7-.5 2-1.4 3.7-2.5 4.9l-1.1 1.1c-.4.3-.9.7-1.5 1-1.2.7-3.6 1.6-7.1 2.9-3.6 1.3-6.1 2-7.4 2.3-1.2 0-2.3 0-3.3-.2zm4.3 22.1c-1.3-2.4-1.7-4.7-1.2-6.9.5-2.6 2.1-4.6 4.7-6.1 4-2 7.7-1.6 11 1.3l9.5-13.5 2.7 5.2-9.3 12.6 2.9 5.6 12.5-6.6 2.3 4.3L48 380.2zm26.2 40.4l-6.7-9.1c-2.6-3.6-3-7.3-1.4-11.3.5-1.4 1.3-2.5 2.3-3.5 1-.9 2.8-2.4 5.5-4.4 2.9-2.1 4.9-3.5 6.2-4.1.6-.3 1.3-.6 1.9-.7s1.2-.2 1.9-.3c1.8-.2 3.6.1 5.5.9 1.9.7 3.5 2 5 4l6.5 8.9zm7.4 8.6l3.4-3.3 11 11.3 6.8-6.6-9.5-9.6 3.2-3.1 9.5 9.6 6.9-6.8-11.1-11.3 3.4-3.3 14.5 14.8-23.6 23.2zm33 30.2c-3.5-2.7-5-6.2-4.5-10.4.1-1.5.5-2.8 1.2-4s2.1-3.1 4.1-5.7c2.2-2.8 3.8-4.7 4.8-5.7.5-.5 1.1-.9 1.6-1.2s1.1-.5 1.8-.8c1.7-.7 3.5-.9 5.5-.6 2 .2 4 1 5.9 2.5l8.8 6.7-20.1 26.3zm38.1 24.1l-1.6-27.7h-.1l-11.3 20.6-4.3-2.4 15.9-29 4.1 2.2 1.6 27.7h.1l11.3-20.6 4.3 2.4-15.8 29zm33.9 14l-19.5-7.2 1.6-4.4 14.9 5.5 3.3-8.9-12.7-4.7 1.5-4.2 12.7 4.7 3.4-9.1-14.9-5.5 1.6-4.4 19.5 7.2zm33.5 8.2l-12.4-2.7c-2.6-.6-4.6-1.8-6-3.5-1.7-2-2.2-4.6-1.6-7.6 1-4.4 3.7-6.9 8.1-7.6l-4.2-15.9 5.7 1.2 3.6 15.2 6.2 1.3 3-13.8 4.8 1zm33.6 3.3l-11.7-.8c-1.3-.1-2.5-.3-3.7-.6-1.2-.4-2.3-1.1-3.5-2.2-1-.8-1.7-1.9-2.3-3.3s-.8-3-.7-4.8c.2-2.4 1.2-4.6 3-6.5 1.9-2 4.5-2.9 7.8-2.7l7.5.5.9-12.9 4.9.4zm37.3-1.9L274 475.2l-7.2 22.3-4.6.4-2.8-33 4.9-.4 1.8 20.6h.1l5.4-16.4 4.1-.4 8.1 15.2h.1l-1.8-20.6 4.9-.4 2.8 33zm15.9-2.5l-1.1-4.6 15.4-3.7-2.2-9.2-13.1 3.2-1-4.3 13.1-3.2-2.3-9.5-15.4 3.7-1.1-4.6 20.2-4.9 7.8 32.1zm63.5-28.3c-.1 1.7-.6 3.5-1.7 5.3-1 1.8-2.7 3.3-5 4.4-2.4 1.1-4.6 1.4-6.6 1.1-2.1-.4-3.7-1.1-5.1-2.1-.8-.5-1.6-1.3-2.4-2.4-.7-1.1-1.9-3.4-3.5-6.9-1.6-3.4-2.6-5.8-3-7.1s-.5-2.4-.3-3.4c0-1.7.6-3.4 1.6-5.2s2.7-3.3 5-4.5c2.3-1 4.5-1.4 6.6-1 2.1.3 3.8 1 5.1 2 .4.4.8.7 1.2 1s.7.8 1.2 1.4c.8 1.1 2 3.4 3.6 6.8 1.6 3.5 2.6 5.9 3 7.1.3 1.5.4 2.6.3 3.5zm10.5.7l-2.4-3.7 7.5-4.8-15.4-24.1 4.1-2.6 15.4 24.1 7.5-4.8 2.4 3.7zm36.9-28.6c-.5 2-1.8 3.9-3.7 5.5-2.4 2-5 2.9-7.7 2.7s-5.2-1.2-7.3-2.9l4-3.3c1.2.8 2.5 1.2 3.9 1.2s2.7-.5 4-1.5c.9-.8 1.5-1.6 1.8-2.5.4-.9.5-1.8.5-2.6 0-1-.2-1.9-.8-2.9-.6-1.1-1.9-2.8-4-5.3s-3.6-4.1-4.5-4.9-1.8-1.2-2.8-1.3c-.8-.2-1.7-.2-2.6 0-1 .2-1.9.6-2.8 1.3-2.1 1.8-2.7 4.3-1.9 7.4l-4 3.3c-1.4-2.8-1.9-5.5-1.4-8 .5-2.6 1.9-4.8 4.1-6.6 2-1.6 4-2.5 6.1-2.6 2.1-.2 3.9 0 5.5.7.5.2 1 .5 1.4.7s.9.6 1.5 1.1c1 .9 2.7 2.8 5.2 5.7s4 5 4.7 6.1c.7 1.2 1 2.2 1.2 3.1.3 1.7.2 3.6-.4 5.6zm12.2-8.9l-3.5-3.2 10.7-11.7-7-6.4-9.1 9.9-3.3-3 9.1-9.9-7.2-6.6-10.7 11.7-3.5-3.2 14-15.3L438 413zm30.7-37.7l-16-2.9 8 14.1-3 4.3-10.2-19.2-11.1-7.9 2.7-3.8 11.1 7.9 21.5 3.3zm12.1-19.9c-1.2 2.3-2.8 3.9-4.7 4.8s-3.6 1.4-5.3 1.3c-1 .1-2.1-.1-3.3-.5s-3.6-1.6-6.9-3.4-5.5-3.1-6.6-3.9-1.8-1.6-2.3-2.5c-1-1.4-1.6-3.1-1.8-5.2-.3-2.1.2-4.3 1.4-6.6 1.3-2.2 2.8-3.8 4.7-4.7 1.8-1 3.6-1.5 5.3-1.4.6 0 1.1.1 1.6.1.5.1 1.1.2 1.8.4 1.3.4 3.6 1.5 6.9 3.3 3.4 1.8 5.6 3.1 6.7 3.9 1 .8 1.8 1.6 2.3 2.5 1 1.4 1.6 3.2 1.8 5.3.1 2.2-.4 4.3-1.6 6.6zm-7.4-81.2l32.4 6.6-2.4 11.5c-.3 1.3-.6 2.4-1.1 3.6-.5 1.1-1.4 2.2-2.6 3.1-.9.9-2.1 1.5-3.6 1.8-1.4.4-3 .4-4.8 0-2.4-.5-4.4-1.8-6-3.8-1.7-2.1-2.3-4.8-1.7-8.1l1.5-7.3-12.7-2.6zm-8 32.9l1.7-4.6 31.1 11.2-4.3 12c-.9 2.5-2.3 4.4-4.3 5.5-2.2 1.4-4.8 1.6-7.7.6-4.2-1.6-6.4-4.6-6.5-9l-16.4 2.1 2-5.5 15.6-1.5 2.1-5.9z"/><path d="M31.4 297.4c-1.1-.7-2.4-.9-3.8-.6-1.7.4-2.8 1.1-3.4 2.3-.5 1-.6 2.2-.3 3.7l1.5 7.6 9.9-1.9-1.4-7.3c-.5-1.8-1.3-3.1-2.5-3.8zm47.5 83.4c-.9 0-1.8.2-2.8.8-.9.5-2.6 1.7-5 3.4-2.3 1.7-3.9 3-4.9 3.8-.9.9-1.5 1.8-1.7 2.8-.7 2.2-.3 4.4 1.2 6.3l3.5 4.7 19-14-3.5-4.7c-1.6-2.2-3.5-3.3-5.8-3.1zm-13-226.3c-.9-.7-2.8-1.9-5.7-3.4s-4.9-2.5-6.1-2.8c-1.1-.3-2.1-.4-3-.1-.8.1-1.6.4-2.4.9-.8.6-1.5 1.4-2 2.4s-.8 2-.8 3 .2 1.8.6 2.6c.3.9.9 1.7 1.8 2.4.9.8 2.8 1.9 5.7 3.4s4.9 2.4 6 2.8 2.1.4 3.1.2c.8-.1 1.7-.5 2.4-1 .8-.5 1.5-1.3 2.1-2.3.5-1 .8-2.1.8-3.1 0-.9-.2-1.8-.6-2.5-.4-1-1-1.8-1.9-2.5z"/><path d="M257.6 69.1c98.1 0 178.8 74.7 188.3 170.3h69.4C505.6 105.6 394 0 257.6 0S9.7 105.6 0 239.4h69.4c9.5-95.6 90.1-170.3 188.2-170.3zm232.5 144.1c.5 2.7.3 5-.8 6.9-1.2 2.3-3.3 3.9-6.3 4.6-4.4.8-7.8-.6-10.2-4.3l-12.9 10.3-1.2-5.7 12.5-9.4-1.3-6.2-13.9 2.8-1-4.8 32.4-6.6zm-18.6-43.1c1.7.2 3.4.9 5.1 2.2 1.7 1.2 3 3 3.9 5.4.8 2.4 1 4.7.4 6.7-.5 2-1.4 3.6-2.6 4.9-.6.8-1.4 1.5-2.6 2.1s-3.5 1.6-7.2 2.9c-3.6 1.3-6 2.1-7.3 2.3-1.3.3-2.5.3-3.4 0-1.7-.2-3.4-.9-5.1-2.1s-3.1-3-4-5.4c-.8-2.4-.9-4.6-.4-6.7.5-2 1.3-3.7 2.5-4.9l1.1-1.1c.4-.3.9-.7 1.5-1 1.2-.7 3.5-1.6 7.1-2.9s6.1-2.1 7.4-2.3c1.5-.3 2.7-.3 3.6-.1zm-4.4-22c1.3 2.4 1.7 4.7 1.2 6.9-.5 2.6-2 4.7-4.7 6.2-4 2.1-7.7 1.7-11-1.2l-9.4 13.6-2.8-5.1 9.3-12.6-3-5.5-12.5 6.7-2.3-4.3 29.1-15.7zm-26.5-40.3l6.8 9.1c2.6 3.5 3.1 7.3 1.5 11.3-.5 1.4-1.3 2.5-2.2 3.5-1 .9-2.8 2.4-5.5 4.4-2.8 2.1-4.9 3.5-6.2 4.2-.6.3-1.3.6-1.8.7-.6.1-1.2.2-1.9.3-1.8.2-3.6-.1-5.5-.9-1.9-.7-3.5-2-5-4l-6.6-8.8zm-7.4-8.5l-3.3 3.3-11.2-11.2L412 98l9.5 9.6-3.1 3.1-9.5-9.6-6.9 6.9 11.2 11.2-3.3 3.3-14.6-14.7 23.4-23.3zm-33.3-30.1c3.5 2.7 5 6.1 4.5 10.4-.1 1.5-.5 2.8-1.2 4s-2 3.1-4.1 5.8c-2.1 2.8-3.7 4.7-4.8 5.7-.5.5-1 .9-1.6 1.2-.5.3-1.1.6-1.8.8-1.7.7-3.5.9-5.5.7-2-.1-4-.9-5.9-2.4l-8.8-6.7 19.9-26.4zm-38.2-23.7l1.8 27.7h.1l11.1-20.7 4.3 2.3-15.7 29.1-4.1-2.2-1.8-27.7h-.1l-11.1 20.7-4.3-2.3 15.7-29.1zm-34-13.8l19.5 7-1.6 4.4-14.9-5.4-3.2 8.9 12.7 4.6-1.5 4.2-12.7-4.5-3.3 9.2 14.9 5.4-1.6 4.4-19.5-7zm-33.6-8.1l12.4 2.6c2.6.6 4.7 1.7 6 3.5 1.7 2 2.2 4.6 1.7 7.6-1 4.4-3.7 6.9-8 7.7l4.3 15.9-5.7-1.2-3.7-15.2-6.2-1.3-2.8 13.8-4.8-1zm-33.6-3l11.7.8c1.3.1 2.5.3 3.7.6 1.2.4 2.3 1.1 3.5 2.2 1 .8 1.7 1.9 2.3 3.3s.8 3 .7 4.8c-.2 2.4-1.1 4.6-3 6.5-1.9 2-4.5 2.9-7.8 2.8l-7.5-.5-.8 12.9-4.9-.3zm-37.2 2.1l11.3 20.6 7.1-22.3 4.6-.4 3.1 32.9-4.9.5-1.9-20.5h-.1l-5.3 16.4-4.1.4-8.2-15.2h-.1l1.9 20.5-4.9.5-3.1-32.9zm-16 2.6l1.1 4.6-15.4 3.8 2.3 9.2 13.1-3.3 1.1 4.3-13.1 3.3 2.4 9.4 15.4-3.8 1.1 4.6-20.1 5-8-32.1zM144.1 54c.1-1.7.6-3.5 1.7-5.3 1-1.8 2.7-3.3 5-4.4s4.6-1.5 6.6-1.1c2.1.3 3.8 1 5.1 2.1.8.5 1.6 1.3 2.4 2.4.7 1.1 1.9 3.4 3.6 6.8 1.6 3.4 2.7 5.8 3.1 7 .4 1.3.5 2.4.4 3.4 0 1.7-.6 3.5-1.6 5.2-1 1.8-2.7 3.3-5 4.5-2.3 1-4.5 1.4-6.6 1-2.1-.3-3.8-1-5.2-2-.4-.3-.8-.7-1.2-1s-.8-.8-1.2-1.4c-.8-1.1-2-3.4-3.6-6.8-1.7-3.5-2.7-5.8-3-7.1-.5-1.2-.6-2.3-.5-3.3zm-10.5-.6l2.4 3.7-7.5 4.8 15.6 24-4.1 2.7-15.6-24-7.5 4.8-2.4-3.7zM96.8 82.3c.5-2 1.7-3.9 3.7-5.5 2.4-2 5-2.9 7.7-2.8 2.7.2 5.2 1.1 7.3 2.9l-4 3.4c-1.2-.8-2.5-1.2-3.9-1.2s-2.7.5-4 1.5c-.9.8-1.5 1.6-1.8 2.5-.4.9-.5 1.8-.5 2.6 0 1 .2 1.9.8 2.9.6 1.1 1.9 2.8 4 5.3s3.6 4.1 4.5 4.8 1.8 1.2 2.8 1.3c.8.2 1.7.2 2.6-.1 1-.2 1.9-.6 2.8-1.4 2.1-1.8 2.7-4.3 1.8-7.5l4-3.4c1.4 2.8 1.9 5.5 1.5 8-.5 2.6-1.9 4.8-4 6.6-2 1.6-4 2.5-6.1 2.7s-3.9 0-5.5-.6c-.5-.2-1-.5-1.4-.7s-.9-.6-1.5-1.1c-1-.9-2.8-2.8-5.2-5.6-2.5-2.9-4.1-5-4.7-6.1-.7-1.1-1.1-2.2-1.2-3.1-.3-1.5-.2-3.4.3-5.4zm-12.1 9l3.5 3.2-10.6 11.7 7 6.4 9.1-10 3.3 3-9.1 10 7.2 6.5 10.6-11.7 3.5 3.2L95.3 129l-24.5-22.2zm-30.5 37.8l16 2.8-8.1-14.1 3-4.3 10.3 19.2 11.2 7.8-2.7 3.8-11.2-7.8-21.6-3.2zm-4 101.2l-32.5-6.4 2.3-11.5c.2-1.3.6-2.4 1.1-3.6.5-1.1 1.4-2.2 2.6-3.2.9-.9 2.1-1.5 3.6-1.8 1.4-.4 3-.4 4.8-.1 2.4.5 4.4 1.7 6.1 3.8s2.3 4.8 1.7 8.1l-1.4 7.4 12.7 2.5zM62.3 185l-15.6 1.6-2.1 5.9 13.3 4.7-1.6 4.6-31.2-11 4.2-12c.9-2.6 2.3-4.4 4.3-5.5 2.2-1.4 4.8-1.6 7.7-.7 4.2 1.6 6.4 4.5 6.6 9l16.3-2.2zm-.3-14c-.6 0-1.1-.1-1.6-.1-.5-.1-1.1-.2-1.8-.4-1.3-.4-3.6-1.5-6.9-3.3-3.4-1.8-5.6-3.1-6.7-3.9-1-.8-1.8-1.6-2.3-2.4-1-1.4-1.6-3.2-1.8-5.2-.3-2.1.2-4.2 1.3-6.5 1.2-2.3 2.8-3.9 4.7-4.8 1.9-1 3.6-1.4 5.3-1.4 1-.1 2.1 0 3.3.5 1.2.4 3.6 1.5 7 3.3 3.3 1.8 5.6 3 6.7 3.8s1.8 1.6 2.3 2.5c1 1.4 1.6 3.1 1.9 5.2s-.2 4.3-1.3 6.6c-1.2 2.2-2.8 3.8-4.7 4.8-1.9.9-3.7 1.4-5.4 1.3zm-16.6 83.5l4.1-8.1 4 8.2 9 1.3-6.5 6.3 1.5 9-8-4.3-8.1 4.2 1.6-8.9-6.5-6.4zm-44 1.3l6.5 6.4-1.6 8.9 8.1-4.2 8 4.3-1.5-9 6.5-6.3-9-1.3-4-8.2-4.1 8.1zm495.8-1.3l4.1-8.1 4 8.2 9 1.3-6.5 6.3 1.5 9-8-4.3-8.1 4.2 1.6-8.9-6.5-6.4zm-44 1.3l6.5 6.4-1.6 8.9 8.1-4.2 8 4.3-1.5-9 6.5-6.3-9-1.3-4-8.2-4.1 8.1zM208.1 375.7h-49c.6-4.8 2.3-9.4 5.1-13.7s8.2-9.3 16-15.1c4.8-3.6 7.8-6.3 9.2-8.1 1.3-1.8 2-3.6 2-5.3 0-1.8-.7-3.3-2-4.6s-3-1.9-5-1.9c-2.1 0-3.8.7-5.1 2s-2.2 3.6-2.7 6.9l-16.4-1.3c.6-4.6 1.8-8.2 3.5-10.8s4.1-4.6 7.2-5.9c3.1-1.4 7.4-2.1 12.9-2.1 5.7 0 10.2.7 13.4 2s5.7 3.3 7.5 6 2.7 5.8 2.7 9.1c0 3.6-1 7-3.1 10.3s-5.9 6.8-11.5 10.8c-3.3 2.3-5.5 3.9-6.6 4.8s-2.4 2.1-3.9 3.6h25.5v13.3zm2.8-29.6c0-11.2 2-19 6-23.5s10.2-6.7 18.4-6.7c4 0 7.2.5 9.7 1.5s4.6 2.2 6.2 3.8 2.9 3.2 3.8 4.9 1.7 3.7 2.2 6c1.1 4.4 1.6 9 1.6 13.7 0 10.7-1.8 18.5-5.4 23.4s-9.8 7.4-18.7 7.4c-4.9 0-8.9-.8-12-2.4-3-1.6-5.5-3.9-7.5-6.9-1.4-2.2-2.5-5.1-3.3-8.9-.6-3.6-1-7.8-1-12.3zm16.2 0c0 7.5.7 12.6 2 15.3s3.2 4.1 5.8 4.1c1.7 0 3.1-.6 4.3-1.7 1.2-1.2 2.1-3 2.7-5.5s.9-6.4.9-11.8c0-7.8-.7-13.1-2-15.7-1.3-2.7-3.3-4-6-4s-4.7 1.4-5.9 4.1-1.8 7.8-1.8 15.2zm71.5-30.2v59.8h-16.5v-39.2c-2.7 2-5.3 3.7-7.8 4.9-2.5 1.3-5.6 2.5-9.4 3.6v-13.4c5.6-1.8 9.9-3.9 13-6.5 3.1-2.5 5.5-5.6 7.2-9.3h13.5zm14 1h47.7v11c-4.1 3.7-7.6 7.8-10.4 12.2-3.4 5.3-6 11.2-8 17.7-1.6 5.1-2.6 11-3.1 17.9h-16.3c1.3-9.6 3.3-17.6 6.1-24.1s7.1-13.5 13.1-20.9h-29v-13.8z"/><path d="M92.9 214.7h331.5v2.3H92.9zm54.2 26.1l-10.4 8.6s-3.4-5.7-13.4-5.7-15 8.4-15 15 4.8 15.2 15 15.2 13.4-5.7 13.4-5.7l10.4 8.6s-8.2 10.9-23.6 10.9-30.8-11.8-30.8-29 14.7-28.8 31.3-28.8 23.1 10.9 23.1 10.9zm5.9-10.9v56.9h42.2v-13.4h-27v-8.6h27v-12.7H168v-7.7h27.2v-14.5zm228.8 0v56.9H424v-13.4h-27v-8.6h27v-12.7h-27.2v-7.7H424v-14.5zm-133.8 0l21.8 37.4v19.5H285v-19.7l21.3-37.2H290l-12.8 22-12.4-22zm77.1 56.9v-29.5l16.8 22.2 16.3-22.7v29.9H373v-56.9h-12.7L341.9 256l-18.4-26.1h-12.7v56.9zm-75.9-36c0 18.8-20 19.7-20 19.7h-11.1v16.3h-15.2v-56.9h27s19.3 2.1 19.3 20.9zm-15.2-.2c0-5.9-4.8-6.1-4.8-6.1h-10.9v12.2h11.1s4.6-.3 4.6-6.1zM92.9 300.7h331.5v2.3H92.9zM130.4 156h23.9c5.2 0 9.1 1.2 11.7 3.7s3.9 6 3.9 10.6c0 4.7-1.4 8.4-4.2 11s-7.1 4-12.9 4h-7.9v17.3h-14.4V156zm14.5 19.9h3.5c2.8 0 4.7-.5 5.8-1.4s1.7-2.2 1.7-3.7-.5-2.7-1.5-3.7-2.8-1.5-5.5-1.5h-4.1v10.3zm29.5 26.7V156h24c4.4 0 7.8.4 10.2 1.1 2.3.8 4.2 2.2 5.7 4.2 1.4 2.1 2.2 4.6 2.2 7.5 0 2.6-.6 4.8-1.7 6.7s-2.6 3.4-4.5 4.6c-1.2.7-2.9 1.4-5.1 1.8 1.7.6 3 1.1 3.7 1.7.5.4 1.3 1.2 2.3 2.4 1 1.3 1.7 2.2 2 2.9l7 13.5h-16.3l-7.7-14.2c-1-1.8-1.8-3-2.6-3.6-1-.7-2.2-1.1-3.5-1.1h-1.3v18.9h-14.4zm14.4-27.7h6.1c.7 0 1.9-.2 3.8-.6 1-.2 1.7-.7 2.3-1.5s.9-1.7.9-2.7c0-1.5-.5-2.7-1.4-3.5-1-.8-2.7-1.2-5.4-1.2h-6.3zm32.7-18.9h38.6v9.9H236v7.4h22.4v9.5H236v9.2h24.8v10.5h-39.3zm43.6 0H284l7.3 28.3 7.2-28.3h18.9v46.6h-11.8v-35.5l-9.1 35.5h-10.7l-9.1-35.5v35.5h-11.8V156zm58.9 0h14.4v46.6H324zm19.6 23.4c0-7.6 2.1-13.5 6.4-17.8 4.2-4.2 10.1-6.4 17.7-6.4 7.7 0 13.7 2.1 17.9 6.2 4.2 4.2 6.3 10 6.3 17.5 0 5.4-.9 9.9-2.7 13.4s-4.5 6.2-7.9 8.1c-3.5 1.9-7.8 2.9-12.9 2.9-5.3 0-9.6-.8-13-2.5s-6.2-4.3-8.4-7.9c-2.3-3.6-3.4-8.1-3.4-13.5zm14.4 0c0 4.7.9 8.1 2.6 10.1 1.7 2.1 4.1 3.1 7.1 3.1 3.1 0 5.5-1 7.2-3s2.5-5.6 2.5-10.8c0-4.4-.9-7.6-2.7-9.6s-4.2-3-7.2-3c-2.9 0-5.2 1-7 3.1-1.6 2-2.5 5.4-2.5 10.1z"/></g></svg>